<svg xmlns="http://www.w3.org/2000/svg">
  <symbol id="Archive" width="24" height="24" viewBox="0 0 24 24" fill="none">
    <path d="M6.60035 9H17.4003M6.60035 9C6.04029 9 5.75957 9 5.54566 9.10899C5.3575 9.20487 5.20463 9.35774 5.10875 9.5459C4.99976 9.75981 4.99976 10.04 4.99976 10.6001V15.8001C4.99976 16.9202 4.99976 17.4804 5.21775 17.9082C5.40949 18.2845 5.71523 18.5905 6.09156 18.7822C6.51896 19 7.07875 19 8.19667 19H15.8025C16.9204 19 17.4794 19 17.9068 18.7822C18.2831 18.5905 18.5902 18.2844 18.782 17.9081C18.9998 17.4807 18.9998 16.9216 18.9998 15.8037V10.591C18.9998 10.037 18.9998 9.75865 18.8914 9.5459C18.7955 9.35774 18.6419 9.20487 18.4538 9.10899C18.2398 9 17.9604 9 17.4003 9M6.60035 9H4.97507C4.12597 9 3.70168 9 3.4607 8.85156C3.13911 8.65347 2.95678 8.29079 2.98902 7.91447C3.0132 7.63223 3.26593 7.29089 3.77222 6.60739C3.91866 6.40971 3.99189 6.31084 4.08152 6.23535C4.20104 6.1347 4.34286 6.06322 4.49488 6.02709C4.60889 6 4.73126 6 4.9773 6H19.0217C19.2677 6 19.3904 6 19.5044 6.02709C19.6564 6.06322 19.7982 6.1347 19.9177 6.23535C20.0074 6.31084 20.0809 6.40924 20.2273 6.60693C20.7336 7.29042 20.9867 7.63218 21.0109 7.91442C21.0432 8.29074 20.8602 8.65347 20.5386 8.85156C20.2976 9 19.8723 9 19.0232 9H17.4003M9.99976 14H13.9998" stroke="currentColor" stroke-width="2" stroke-linecap="round" stroke-linejoin="round" />
  </symbol>
  <symbol id="Cloud" width="24" height="24" viewBox="0 0 24 24" fill="none">
    <path d="M19 11C21.2091 11 23 12.7909 23 15C23 17.2091 21.2091 19 19 19L6 19.0001C3.23858 19.0001 1 16.7613 1 13.9999C1 11.3498 3.06206 9.18144 5.66895 9.01082C6.79019 6.64004 9.20335 5 12 5C15.5267 5 18.4447 7.60802 18.9297 11.0006C18.9532 11.0002 18.9764 11 19 11Z" stroke="currentColor" stroke-width="2" stroke-linecap="round" stroke-linejoin="round" />
  </symbol>
  <symbol id="Cloud_Add" width="24" height="24" viewBox="0 0 24 24" fill="none">
    <path d="M12 16V13M12 13V10M12 13H9M12 13H15M23 15C23 12.7909 21.2091 11 19 11C18.9764 11 18.9532 11.0002 18.9297 11.0006C18.4447 7.60802 15.5267 5 12 5C9.20335 5 6.79019 6.64004 5.66895 9.01082C3.06206 9.18144 1 11.3498 1 13.9999C1 16.7613 3.23858 19.0001 6 19.0001L19 19C21.2091 19 23 17.2091 23 15Z" stroke="currentColor" stroke-width="2" stroke-linecap="round" stroke-linejoin="round" />
  </symbol>
  <symbol id="Cloud_Check" width="24" height="24" viewBox="0 0 24 24" fill="none">
    <path d="M15 11L11 15L9 13M23 15C23 12.7909 21.2091 11 19 11C18.9764 11 18.9532 11.0002 18.9297 11.0006C18.4447 7.60802 15.5267 5 12 5C9.20335 5 6.79019 6.64004 5.66895 9.01082C3.06206 9.18144 1 11.3498 1 13.9999C1 16.7613 3.23858 19.0001 6 19.0001L19 19C21.2091 19 23 17.2091 23 15Z" stroke="currentColor" stroke-width="2" stroke-linecap="round" stroke-linejoin="round" />
  </symbol>
  <symbol id="Cloud_Close" width="24" height="24" viewBox="0 0 24 24" fill="none">
    <path d="M10 15L12 13M12 13L14 11M12 13L10 11M12 13L14 15M23 15C23 12.7909 21.2091 11 19 11C18.9764 11 18.9532 11.0002 18.9297 11.0006C18.4447 7.60802 15.5267 5 12 5C9.20335 5 6.79019 6.64004 5.66895 9.01082C3.06206 9.18144 1 11.3498 1 13.9999C1 16.7613 3.23858 19.0001 6 19.0001L19 19C21.2091 19 23 17.2091 23 15Z" stroke="currentColor" stroke-width="2" stroke-linecap="round" stroke-linejoin="round" />
  </symbol>
  <symbol id="Cloud_Download" width="24" height="24" viewBox="0 0 24 24" fill="none">
    <path d="M12 9V15M12 15L15 13M12 15L9 13M23 15C23 12.7909 21.2091 11 19 11C18.9764 11 18.9532 11.0002 18.9297 11.0006C18.4447 7.60802 15.5267 5 12 5C9.20335 5 6.79019 6.64004 5.66895 9.01082C3.06206 9.18144 1 11.3498 1 13.9999C1 16.7613 3.23858 19.0001 6 19.0001L19 19C21.2091 19 23 17.2091 23 15Z" stroke="currentColor" stroke-width="2" stroke-linecap="round" stroke-linejoin="round" />
  </symbol>
  <symbol id="Cloud_Off" width="24" height="24" viewBox="0 0 24 24" fill="none">
    <path d="M19 19H6C3.23858 19 1 16.7614 1 14C1 11.35 3.06162 9.18137 5.6685 9.01074C6.00446 8.30038 6.45733 7.65576 7.00088 7.10107M19 19L5 5M19 19L21 21M10 5.28988C10.6337 5.10128 11.305 5 12 5C15.5267 5 18.4442 7.60802 18.9292 11.0006C18.9528 11.0002 18.9773 11 19.001 11C21.2101 11 22.9995 12.7909 22.9995 15C22.9995 15.9459 22.672 16.8152 22.123 17.5" stroke="currentColor" stroke-width="2" stroke-linecap="round" stroke-linejoin="round" />
  </symbol>
  <symbol id="Cloud_Remove" width="24" height="24" viewBox="0 0 24 24" fill="none">
    <path d="M9 13H15M23 15C23 12.7909 21.2091 11 19 11C18.9764 11 18.9532 11.0002 18.9297 11.0006C18.4447 7.60802 15.5267 5 12 5C9.20335 5 6.79019 6.64004 5.66895 9.01082C3.06206 9.18144 1 11.3498 1 13.9999C1 16.7613 3.23858 19.0001 6 19.0001L19 19C21.2091 19 23 17.2091 23 15Z" stroke="currentColor" stroke-width="2" stroke-linecap="round" stroke-linejoin="round" />
  </symbol>
  <symbol id="Cloud_Upload" width="24" height="24" viewBox="0 0 24 24" fill="none">
    <path d="M12 16V10M12 10L9 12M12 10L15 12M23 15C23 12.7909 21.2091 11 19 11C18.9764 11 18.9532 11.0002 18.9297 11.0006C18.4447 7.60802 15.5267 5 12 5C9.20335 5 6.79019 6.64004 5.66895 9.01082C3.06206 9.18144 1 11.3498 1 13.9999C1 16.7613 3.23858 19.0001 6 19.0001L19 19C21.2091 19 23 17.2091 23 15Z" stroke="currentColor" stroke-width="2" stroke-linecap="round" stroke-linejoin="round" />
  </symbol>
  <symbol id="Download_Package" width="24" height="24" viewBox="0 0 24 24" fill="none">
    <path d="M4 8V16.8C4 17.9201 4 18.4798 4.21799 18.9076C4.40973 19.2839 4.71547 19.5905 5.0918 19.7822C5.5192 20 6.07899 20 7.19691 20H16.8031C17.921 20 18.48 20 18.9074 19.7822C19.2837 19.5905 19.5905 19.2839 19.7822 18.9076C20 18.4802 20 17.921 20 16.8031V8M4 8H20M4 8L5.36518 5.61089C5.7002 5.0246 5.86768 4.73151 6.10325 4.51807C6.31184 4.32907 6.55859 4.18605 6.82617 4.09871C7.12861 4 7.46623 4 8.14258 4H15.8571C16.5334 4 16.8723 4 17.1747 4.09871C17.4423 4.18605 17.6879 4.32907 17.8965 4.51807C18.1322 4.73168 18.3002 5.02507 18.6357 5.6123L20 8M12 11V17M12 17L15 15M12 17L9 15" stroke="currentColor" stroke-width="2" stroke-linecap="round" stroke-linejoin="round" />
  </symbol>
  <symbol id="File_Add" width="24" height="24" viewBox="0 0 24 24" fill="none">
    <path d="M12 18V15M12 15V12M12 15H9M12 15H15M13 3.00087C12.9045 3 12.7973 3 12.6747 3H8.2002C7.08009 3 6.51962 3 6.0918 3.21799C5.71547 3.40973 5.40973 3.71547 5.21799 4.0918C5 4.51962 5 5.08009 5 6.2002V17.8002C5 18.9203 5 19.4801 5.21799 19.9079C5.40973 20.2842 5.71547 20.5905 6.0918 20.7822C6.51921 21 7.079 21 8.19694 21L15.8031 21C16.921 21 17.48 21 17.9074 20.7822C18.2837 20.5905 18.5905 20.2842 18.7822 19.9079C19 19.4805 19 18.9215 19 17.8036V9.32568C19 9.20296 19 9.09561 18.9991 9M13 3.00087C13.2856 3.00347 13.4663 3.01385 13.6388 3.05526C13.8429 3.10425 14.0379 3.18526 14.2168 3.29492C14.4186 3.41857 14.5918 3.59182 14.9375 3.9375L18.063 7.06298C18.4089 7.40889 18.5809 7.58136 18.7046 7.78319C18.8142 7.96214 18.8953 8.15726 18.9443 8.36133C18.9857 8.53376 18.9963 8.71451 18.9991 9M13 3.00087V5.8C13 6.9201 13 7.47977 13.218 7.90759C13.4097 8.28392 13.7155 8.59048 14.0918 8.78223C14.5192 9 15.079 9 16.1969 9H18.9991M18.9991 9H19.0002" stroke="currentColor" stroke-width="2" stroke-linecap="round" stroke-linejoin="round" />
  </symbol>
  <symbol id="File_Blank" width="24" height="24" viewBox="0 0 24 24" fill="none">
    <path d="M13 3.00087C12.9045 3 12.7973 3 12.6747 3H8.2002C7.08009 3 6.51962 3 6.0918 3.21799C5.71547 3.40973 5.40973 3.71547 5.21799 4.0918C5 4.51962 5 5.08009 5 6.2002V17.8002C5 18.9203 5 19.4801 5.21799 19.9079C5.40973 20.2842 5.71547 20.5905 6.0918 20.7822C6.51921 21 7.079 21 8.19694 21L15.8031 21C16.921 21 17.48 21 17.9074 20.7822C18.2837 20.5905 18.5905 20.2842 18.7822 19.9079C19 19.4805 19 18.9215 19 17.8036V9.32568C19 9.20296 19 9.09561 18.9991 9M13 3.00087C13.2856 3.00347 13.4663 3.01385 13.6388 3.05526C13.8429 3.10425 14.0379 3.18526 14.2168 3.29492C14.4186 3.41857 14.5918 3.59182 14.9375 3.9375L18.063 7.06298C18.4089 7.40889 18.5809 7.58136 18.7046 7.78319C18.8142 7.96214 18.8953 8.15726 18.9443 8.36133C18.9857 8.53376 18.9963 8.71451 18.9991 9M13 3.00087V5.8C13 6.9201 13 7.47977 13.218 7.90759C13.4097 8.28392 13.7155 8.59048 14.0918 8.78223C14.5192 9 15.079 9 16.1969 9H18.9991M18.9991 9H19.0002" stroke="currentColor" stroke-width="2" stroke-linecap="round" stroke-linejoin="round" />
  </symbol>
  <symbol id="File_Check" width="24" height="24" viewBox="0 0 24 24" fill="none">
    <path d="M9 15L11 17L15 13M13 3.00087C12.9045 3 12.7973 3 12.6747 3H8.2002C7.08009 3 6.51962 3 6.0918 3.21799C5.71547 3.40973 5.40973 3.71547 5.21799 4.0918C5 4.51962 5 5.08009 5 6.2002V17.8002C5 18.9203 5 19.4801 5.21799 19.9079C5.40973 20.2842 5.71547 20.5905 6.0918 20.7822C6.51921 21 7.079 21 8.19694 21L15.8031 21C16.921 21 17.48 21 17.9074 20.7822C18.2837 20.5905 18.5905 20.2842 18.7822 19.9079C19 19.4805 19 18.9215 19 17.8036V9.32568C19 9.20296 19 9.09561 18.9991 9M13 3.00087C13.2856 3.00347 13.4663 3.01385 13.6388 3.05526C13.8429 3.10425 14.0379 3.18526 14.2168 3.29492C14.4186 3.41857 14.5918 3.59182 14.9375 3.9375L18.063 7.06298C18.4089 7.40889 18.5809 7.58136 18.7046 7.78319C18.8142 7.96214 18.8953 8.15726 18.9443 8.36133C18.9857 8.53376 18.9963 8.71451 18.9991 9M13 3.00087V5.8C13 6.9201 13 7.47977 13.218 7.90759C13.4097 8.28392 13.7155 8.59048 14.0918 8.78223C14.5192 9 15.079 9 16.1969 9H18.9991M18.9991 9H19.0002" stroke="currentColor" stroke-width="2" stroke-linecap="round" stroke-linejoin="round" />
  </symbol>
  <symbol id="File_Close" width="24" height="24" viewBox="0 0 24 24" fill="none">
    <path d="M10 17L12 15M12 15L14 13M12 15L10 13M12 15L14 17M13 3.00087C12.9045 3 12.7973 3 12.6747 3H8.2002C7.08009 3 6.51962 3 6.0918 3.21799C5.71547 3.40973 5.40973 3.71547 5.21799 4.0918C5 4.51962 5 5.08009 5 6.2002V17.8002C5 18.9203 5 19.4801 5.21799 19.9079C5.40973 20.2842 5.71547 20.5905 6.0918 20.7822C6.51921 21 7.079 21 8.19694 21L15.8031 21C16.921 21 17.48 21 17.9074 20.7822C18.2837 20.5905 18.5905 20.2842 18.7822 19.9079C19 19.4805 19 18.9215 19 17.8036V9.32568C19 9.20296 19 9.09561 18.9991 9M13 3.00087C13.2856 3.00347 13.4663 3.01385 13.6388 3.05526C13.8429 3.10425 14.0379 3.18526 14.2168 3.29492C14.4186 3.41857 14.5918 3.59182 14.9375 3.9375L18.063 7.06298C18.4089 7.40889 18.5809 7.58136 18.7046 7.78319C18.8142 7.96214 18.8953 8.15726 18.9443 8.36133C18.9857 8.53376 18.9963 8.71451 18.9991 9M13 3.00087V5.8C13 6.9201 13 7.47977 13.218 7.90759C13.4097 8.28392 13.7155 8.59048 14.0918 8.78223C14.5192 9 15.079 9 16.1969 9H18.9991M18.9991 9H19.0002" stroke="currentColor" stroke-width="2" stroke-linecap="round" stroke-linejoin="round" />
  </symbol>
  <symbol id="File_Code" width="24" height="24" viewBox="0 0 24 24" fill="none">
    <path d="M13 3.00087C12.9045 3 12.7973 3 12.6747 3H8.2002C7.08009 3 6.51962 3 6.0918 3.21799C5.71547 3.40973 5.40973 3.71547 5.21799 4.0918C5 4.51962 5 5.08009 5 6.2002V17.8002C5 18.9203 5 19.4801 5.21799 19.9079C5.40973 20.2842 5.71547 20.5905 6.0918 20.7822C6.51921 21 7.079 21 8.19694 21L15.8031 21C16.921 21 17.48 21 17.9074 20.7822C18.2837 20.5905 18.5905 20.2842 18.7822 19.9079C19 19.4805 19 18.9215 19 17.8036V9.32568C19 9.20296 19 9.09561 18.9991 9M13 3.00087C13.2856 3.00347 13.4663 3.01385 13.6388 3.05526C13.8429 3.10425 14.0379 3.18526 14.2168 3.29492C14.4186 3.41857 14.5918 3.59182 14.9375 3.9375L18.063 7.06298C18.4089 7.40889 18.5809 7.58136 18.7046 7.78319C18.8142 7.96214 18.8953 8.15726 18.9443 8.36133C18.9857 8.53376 18.9963 8.71451 18.9991 9M13 3.00087V5.8C13 6.9201 13 7.47977 13.218 7.90759C13.4097 8.28392 13.7155 8.59048 14.0918 8.78223C14.5192 9 15.079 9 16.1969 9H18.9991M18.9991 9H19.0002M14 13L16 15L14 17M10 17L8 15L10 13" stroke="currentColor" stroke-width="2" stroke-linecap="round" stroke-linejoin="round" />
  </symbol>
  <symbol id="File_Document" width="24" height="24" viewBox="0 0 24 24" fill="none">
    <path d="M9 17H15M9 14H15M13.0004 3.00087C12.9048 3 12.7974 3 12.6747 3H8.2002C7.08009 3 6.51962 3 6.0918 3.21799C5.71547 3.40973 5.40973 3.71547 5.21799 4.0918C5 4.51962 5 5.08009 5 6.2002V17.8002C5 18.9203 5 19.4801 5.21799 19.9079C5.40973 20.2842 5.71547 20.5905 6.0918 20.7822C6.51921 21 7.079 21 8.19694 21L15.8031 21C16.921 21 17.48 21 17.9074 20.7822C18.2837 20.5905 18.5905 20.2842 18.7822 19.9079C19 19.4805 19 18.9215 19 17.8036V9.32568C19 9.20302 18.9999 9.09553 18.999 9M13.0004 3.00087C13.2858 3.00348 13.4657 3.01407 13.6382 3.05547C13.8423 3.10446 14.0379 3.18526 14.2168 3.29492C14.4186 3.41857 14.5918 3.59181 14.9375 3.9375L18.063 7.06298C18.4089 7.40889 18.5809 7.58136 18.7046 7.78319C18.8142 7.96214 18.8953 8.15726 18.9443 8.36133C18.9857 8.53379 18.9964 8.71454 18.999 9M13.0004 3.00087L13 5.80021C13 6.92031 13 7.48015 13.218 7.90797C13.4097 8.2843 13.7155 8.59048 14.0918 8.78223C14.5192 9 15.079 9 16.1969 9H18.999" stroke="currentColor" stroke-width="2" stroke-linecap="round" stroke-linejoin="round" />
  </symbol>
  <symbol id="File_Download" width="24" height="24" viewBox="0 0 24 24" fill="none">
    <path d="M12 12V18M12 18L15 16M12 18L9 16M13 3.00087C12.9045 3 12.7973 3 12.6747 3H8.2002C7.08009 3 6.51962 3 6.0918 3.21799C5.71547 3.40973 5.40973 3.71547 5.21799 4.0918C5 4.51962 5 5.08009 5 6.2002V17.8002C5 18.9203 5 19.4801 5.21799 19.9079C5.40973 20.2842 5.71547 20.5905 6.0918 20.7822C6.5192 21 7.07899 21 8.19691 21H15.8031C16.921 21 17.48 21 17.9074 20.7822C18.2837 20.5905 18.5905 20.2842 18.7822 19.9079C19 19.4805 19 18.9215 19 17.8036V9.32568C19 9.20296 19 9.09561 18.9991 9M13 3.00087C13.2856 3.00347 13.4663 3.01385 13.6388 3.05526C13.8429 3.10425 14.0379 3.18526 14.2168 3.29492C14.4186 3.41857 14.5918 3.59182 14.9375 3.9375L18.063 7.06298C18.4089 7.40889 18.5809 7.58136 18.7046 7.78319C18.8142 7.96214 18.8953 8.15726 18.9443 8.36133C18.9857 8.53376 18.9963 8.71451 18.9991 9M13 3.00087V5.8C13 6.9201 13 7.47977 13.218 7.90759C13.4097 8.28392 13.7155 8.59048 14.0918 8.78223C14.5192 9 15.079 9 16.1969 9H18.9991M18.9991 9H19.0002" stroke="currentColor" stroke-width="2" stroke-linecap="round" stroke-linejoin="round" />
  </symbol>
  <symbol id="File_Edit" width="24" height="24" viewBox="0 0 24 24" fill="none">
    <path d="M6 11.0002V6.2002C6 5.08009 6 4.51962 6.21799 4.0918C6.40973 3.71547 6.71547 3.40973 7.0918 3.21799C7.51962 3 8.08009 3 9.2002 3H13.6747C13.7973 3 13.9045 3 14 3.00087M19.9991 9C20 9.09561 20 9.20296 20 9.32568V17.8036C20 18.9215 20 19.4805 19.7822 19.9079C19.5905 20.2842 19.2839 20.5905 18.9076 20.7822C18.4802 21 17.921 21 16.8031 21L13 21M19.9991 9C19.9963 8.71451 19.9857 8.53376 19.9443 8.36133C19.8953 8.15726 19.8142 7.96214 19.7046 7.7832C19.5809 7.58136 19.4089 7.40889 19.063 7.06298L15.9375 3.9375C15.5918 3.59182 15.4186 3.41857 15.2168 3.29492C15.0379 3.18526 14.8429 3.10425 14.6388 3.05526C14.4663 3.01385 14.2856 3.00347 14 3.00087M19.9991 9H20.0002M19.9991 9H17.1969C16.079 9 15.5192 9 15.0918 8.78223C14.7155 8.59048 14.4097 8.28392 14.218 7.90759C14 7.47977 14 6.9201 14 5.8V3.00087M9 14L11 16M4 21V18.5L11.5 11L14 13.5L6.5 21H4Z" stroke="currentColor" stroke-width="2" stroke-linecap="round" stroke-linejoin="round" />
  </symbol>
  <symbol id="File_Remove" width="24" height="24" viewBox="0 0 24 24" fill="none">
    <path d="M9 15H15M13 3.00087C12.9045 3 12.7973 3 12.6747 3H8.2002C7.08009 3 6.51962 3 6.0918 3.21799C5.71547 3.40973 5.40973 3.71547 5.21799 4.0918C5 4.51962 5 5.08009 5 6.2002V17.8002C5 18.9203 5 19.4801 5.21799 19.9079C5.40973 20.2842 5.71547 20.5905 6.0918 20.7822C6.51921 21 7.079 21 8.19694 21L15.8031 21C16.921 21 17.48 21 17.9074 20.7822C18.2837 20.5905 18.5905 20.2842 18.7822 19.9079C19 19.4805 19 18.9215 19 17.8036V9.32568C19 9.20296 19 9.09561 18.9991 9M13 3.00087C13.2856 3.00347 13.4663 3.01385 13.6388 3.05526C13.8429 3.10425 14.0379 3.18526 14.2168 3.29492C14.4186 3.41857 14.5918 3.59182 14.9375 3.9375L18.063 7.06298C18.4089 7.40889 18.5809 7.58136 18.7046 7.78319C18.8142 7.96214 18.8953 8.15726 18.9443 8.36133C18.9857 8.53376 18.9963 8.71451 18.9991 9M13 3.00087V5.8C13 6.9201 13 7.47977 13.218 7.90759C13.4097 8.28392 13.7155 8.59048 14.0918 8.78223C14.5192 9 15.079 9 16.1969 9H18.9991M18.9991 9H19.0002" stroke="currentColor" stroke-width="2" stroke-linecap="round" stroke-linejoin="round" />
  </symbol>
  <symbol id="File_Search" width="24" height="24" viewBox="0 0 24 24" fill="none">
    <path d="M14.9994 18.0004L13.3418 16.3428M13.0004 3.00087C12.9048 3 12.7974 3 12.6747 3H8.2002C7.08009 3 6.51962 3 6.0918 3.21799C5.71547 3.40973 5.40973 3.71547 5.21799 4.0918C5 4.51962 5 5.08009 5 6.2002V17.8002C5 18.9203 5 19.4801 5.21799 19.9079C5.40973 20.2842 5.71547 20.5905 6.0918 20.7822C6.51921 21 7.079 21 8.19694 21L15.8031 21C16.921 21 17.48 21 17.9074 20.7822C18.2837 20.5905 18.5905 20.2842 18.7822 19.9079C19 19.4805 19 18.9215 19 17.8036V9.32568C19 9.20302 18.9999 9.09553 18.999 9M13.0004 3.00087C13.2858 3.00348 13.4657 3.01407 13.6382 3.05547C13.8423 3.10446 14.0379 3.18526 14.2168 3.29492C14.4186 3.41857 14.5918 3.59181 14.9375 3.9375L18.063 7.06298C18.4089 7.40889 18.5809 7.58136 18.7046 7.78319C18.8142 7.96214 18.8953 8.15726 18.9443 8.36133C18.9857 8.53379 18.9964 8.71454 18.999 9M13.0004 3.00087L13 5.80021C13 6.92031 13 7.48015 13.218 7.90797C13.4097 8.2843 13.7155 8.59048 14.0918 8.78223C14.5192 9 15.079 9 16.1969 9H18.999M11.5 17C10.1193 17 9 15.8807 9 14.5C9 13.1193 10.1193 12 11.5 12C12.8807 12 14 13.1193 14 14.5C14 15.8807 12.8807 17 11.5 17Z" stroke="currentColor" stroke-width="2" stroke-linecap="round" stroke-linejoin="round" />
  </symbol>
  <symbol id="File_Upload" width="24" height="24" viewBox="0 0 24 24" fill="none">
    <path d="M12 18V12M12 12L9 14M12 12L15 14M13 3.00087C12.9045 3 12.7973 3 12.6747 3H8.2002C7.08009 3 6.51962 3 6.0918 3.21799C5.71547 3.40973 5.40973 3.71547 5.21799 4.0918C5 4.51962 5 5.08009 5 6.2002V17.8002C5 18.9203 5 19.4801 5.21799 19.9079C5.40973 20.2842 5.71547 20.5905 6.0918 20.7822C6.51921 21 7.079 21 8.19694 21L15.8031 21C16.921 21 17.48 21 17.9074 20.7822C18.2837 20.5905 18.5905 20.2842 18.7822 19.9079C19 19.4805 19 18.9215 19 17.8036V9.32568C19 9.20296 19 9.09561 18.9991 9M13 3.00087C13.2856 3.00347 13.4663 3.01385 13.6388 3.05526C13.8429 3.10425 14.0379 3.18526 14.2168 3.29492C14.4186 3.41857 14.5918 3.59182 14.9375 3.9375L18.063 7.06298C18.4089 7.40889 18.5809 7.58136 18.7046 7.78319C18.8142 7.96214 18.8953 8.15726 18.9443 8.36133C18.9857 8.53376 18.9963 8.71451 18.9991 9M13 3.00087V5.8C13 6.9201 13 7.47977 13.218 7.90759C13.4097 8.28392 13.7155 8.59048 14.0918 8.78223C14.5192 9 15.079 9 16.1969 9H18.9991M18.9991 9H19.0002" stroke="currentColor" stroke-width="2" stroke-linecap="round" stroke-linejoin="round" />
  </symbol>
  <symbol id="Files" width="24" height="24" viewBox="0 0 24 24" fill="none">
    <path d="M9 6H9.33687C9.58146 6 9.70385 6 9.81893 6.02763C9.92097 6.05213 10.0189 6.09263 10.1084 6.14746C10.2093 6.20928 10.2959 6.29591 10.4688 6.46875L13.5315 9.53149C13.7044 9.70444 13.7904 9.79044 13.8523 9.89135C13.9071 9.98082 13.9482 10.0786 13.9727 10.1807C14 10.2946 14 10.4155 14 10.6552V18M9 6H4.59961C4.03956 6 3.75981 6 3.5459 6.10899C3.35774 6.20487 3.20487 6.35774 3.10899 6.5459C3 6.75981 3 7.04004 3 7.6001V19.4001C3 19.9601 3 20.2398 3.10899 20.4537C3.20487 20.6419 3.35774 20.7952 3.5459 20.8911C3.7596 21 4.03902 21 4.598 21L12.4011 21C12.96 21 13.2405 21 13.4542 20.8911C13.6423 20.7952 13.7948 20.6421 13.8906 20.4539C13.9996 20.24 14 19.9599 14 19.3999V18M9 6V9.4C9 9.96005 9 10.2399 9.10899 10.4538C9.20487 10.642 9.35774 10.7952 9.5459 10.8911C9.7596 11 10.039 11 10.598 11H13.9996M10 6.0001V4.6001C10 4.04005 10 3.75981 10.109 3.5459C10.2049 3.35774 10.3577 3.20487 10.5459 3.10899C10.7598 3 11.0396 3 11.5996 3H16M16 3H16.3369C16.5815 3 16.7038 3 16.8189 3.02763C16.921 3.05213 17.0189 3.09263 17.1084 3.14746C17.2093 3.20928 17.2959 3.29592 17.4688 3.46875L20.5315 6.53149C20.7044 6.70444 20.7904 6.79044 20.8523 6.89135C20.9071 6.98082 20.9482 7.07863 20.9727 7.18066C21 7.29458 21 7.41552 21 7.65515V16.3999C21 16.9599 20.9996 17.24 20.8906 17.4539C20.7948 17.6421 20.6429 17.7952 20.4548 17.8911C20.2411 18 19.961 18 19.402 18H14M16 3V6.4C16 6.96005 16 7.23988 16.109 7.4538C16.2049 7.64196 16.3577 7.79524 16.5459 7.89111C16.7596 8 17.039 8 17.598 8H20.9996" stroke="currentColor" stroke-width="2" stroke-linecap="round" stroke-linejoin="round" />
  </symbol>
  <symbol id="Folder" width="24" height="24" viewBox="0 0 24 24" fill="none">
    <path d="M3 6V16.8C3 17.9201 3 18.4798 3.21799 18.9076C3.40973 19.2839 3.71547 19.5905 4.0918 19.7822C4.5192 20 5.07899 20 6.19691 20H17.8031C18.921 20 19.48 20 19.9074 19.7822C20.2837 19.5905 20.5905 19.2841 20.7822 18.9078C21.0002 18.48 21.0002 17.9199 21.0002 16.7998L21.0002 9.19978C21.0002 8.07967 21.0002 7.51962 20.7822 7.0918C20.5905 6.71547 20.2839 6.40973 19.9076 6.21799C19.4798 6 18.9201 6 17.8 6H12M3 6H12M3 6C3 4.89543 3.89543 4 5 4H8.67452C9.1637 4 9.40886 4 9.63904 4.05526C9.84311 4.10425 10.0379 4.18526 10.2168 4.29492C10.4186 4.41857 10.5918 4.59182 10.9375 4.9375L12 6" stroke="currentColor" stroke-width="2" stroke-linecap="round" stroke-linejoin="round" />
  </symbol>
  <symbol id="Folder_Add" width="24" height="24" viewBox="0 0 24 24" fill="none">
    <path d="M12 16V13M12 13V10M12 13H9M12 13H15M3 6V16.8C3 17.9201 3 18.4798 3.21799 18.9076C3.40973 19.2839 3.71547 19.5905 4.0918 19.7822C4.5192 20 5.07899 20 6.19691 20H17.8031C18.921 20 19.48 20 19.9074 19.7822C20.2837 19.5905 20.5905 19.2841 20.7822 18.9078C21.0002 18.48 21.0002 17.9199 21.0002 16.7998L21.0002 9.19978C21.0002 8.07967 21.0002 7.51962 20.7822 7.0918C20.5905 6.71547 20.2839 6.40973 19.9076 6.21799C19.4798 6 18.9201 6 17.8 6H12M3 6H12M3 6C3 4.89543 3.89543 4 5 4H8.67452C9.1637 4 9.40886 4 9.63904 4.05526C9.84311 4.10425 10.0379 4.18526 10.2168 4.29492C10.4186 4.41857 10.5918 4.59182 10.9375 4.9375L12 6" stroke="currentColor" stroke-width="2" stroke-linecap="round" stroke-linejoin="round" />
  </symbol>
  <symbol id="Folder_Check" width="24" height="24" viewBox="0 0 24 24" fill="none">
    <path d="M15 11L11 15L9 13M3 6V16.8C3 17.9201 3 18.4798 3.21799 18.9076C3.40973 19.2839 3.71547 19.5905 4.0918 19.7822C4.5192 20 5.07899 20 6.19691 20H17.8031C18.921 20 19.48 20 19.9074 19.7822C20.2837 19.5905 20.5905 19.2841 20.7822 18.9078C21.0002 18.48 21.0002 17.9199 21.0002 16.7998L21.0002 9.19978C21.0002 8.07967 21.0002 7.51962 20.7822 7.0918C20.5905 6.71547 20.2839 6.40973 19.9076 6.21799C19.4798 6 18.9201 6 17.8 6H12M3 6H12M3 6C3 4.89543 3.89543 4 5 4H8.67452C9.1637 4 9.40886 4 9.63904 4.05526C9.84311 4.10425 10.0379 4.18526 10.2168 4.29492C10.4186 4.41857 10.5918 4.59182 10.9375 4.9375L12 6" stroke="currentColor" stroke-width="2" stroke-linecap="round" stroke-linejoin="round" />
  </symbol>
  <symbol id="Folder_Close" width="24" height="24" viewBox="0 0 24 24" fill="none">
    <path d="M10 15L12 13M12 13L14 11M12 13L10 11M12 13L14 15M3 6V16.8C3 17.9201 3 18.4798 3.21799 18.9076C3.40973 19.2839 3.71547 19.5905 4.0918 19.7822C4.5192 20 5.07899 20 6.19691 20H17.8031C18.921 20 19.48 20 19.9074 19.7822C20.2837 19.5905 20.5905 19.2841 20.7822 18.9078C21.0002 18.48 21.0002 17.9199 21.0002 16.7998L21.0002 9.19978C21.0002 8.07967 21.0002 7.51962 20.7822 7.0918C20.5905 6.71547 20.2839 6.40973 19.9076 6.21799C19.4798 6 18.9201 6 17.8 6H12M3 6H12M3 6C3 4.89543 3.89543 4 5 4H8.67452C9.1637 4 9.40886 4 9.63904 4.05526C9.84311 4.10425 10.0379 4.18526 10.2168 4.29492C10.4186 4.41857 10.5918 4.59182 10.9375 4.9375L12 6" stroke="currentColor" stroke-width="2" stroke-linecap="round" stroke-linejoin="round" />
  </symbol>
  <symbol id="Folder_Code" width="24" height="24" viewBox="0 0 24 24" fill="none">
    <path d="M14 11L16 13L14 15M10 15L8 13L10 11M3 6V16.8C3 17.9201 3 18.4798 3.21799 18.9076C3.40973 19.2839 3.71547 19.5905 4.0918 19.7822C4.5192 20 5.07899 20 6.19691 20H17.8031C18.921 20 19.48 20 19.9074 19.7822C20.2837 19.5905 20.5905 19.2841 20.7822 18.9078C21.0002 18.48 21.0002 17.9199 21.0002 16.7998L21.0002 9.19978C21.0002 8.07967 21.0002 7.51962 20.7822 7.0918C20.5905 6.71547 20.2839 6.40973 19.9076 6.21799C19.4798 6 18.9201 6 17.8 6H12M3 6H12M3 6C3 4.89543 3.89543 4 5 4H8.67452C9.1637 4 9.40886 4 9.63904 4.05526C9.84311 4.10425 10.0379 4.18526 10.2168 4.29492C10.4186 4.41857 10.5918 4.59182 10.9375 4.9375L12 6" stroke="currentColor" stroke-width="2" stroke-linecap="round" stroke-linejoin="round" />
  </symbol>
  <symbol id="Folder_Document" width="24" height="24" viewBox="0 0 24 24" fill="none">
    <path d="M9 15H15M9 12H15M3 6V16.8C3 17.9201 3 18.4796 3.21799 18.9074C3.40973 19.2837 3.71547 19.5905 4.0918 19.7822C4.5192 20 5.07899 20 6.19691 20H17.8037C18.9216 20 19.4806 20 19.908 19.7822C20.2843 19.5905 20.5905 19.2841 20.7822 18.9078C21.0002 18.48 21.0002 17.9199 21.0002 16.7998L21.0002 9.19978C21.0002 8.07967 21.0002 7.51962 20.7822 7.0918C20.5905 6.71547 20.2837 6.40973 19.9074 6.21799C19.4796 6 18.9201 6 17.8 6H12M3 6H12M3 6C3 4.89543 3.89543 4 5 4H8.67452C9.1637 4 9.40915 4 9.63933 4.05526C9.8434 4.10425 10.0379 4.18526 10.2168 4.29492C10.4186 4.41856 10.5918 4.59183 10.9375 4.9375L12 6" stroke="currentColor" stroke-width="2" stroke-linecap="round" stroke-linejoin="round" />
  </symbol>
  <symbol id="Folder_Download" width="24" height="24" viewBox="0 0 24 24" fill="none">
    <path d="M12 10V16M12 16L15 14M12 16L9 14M3 6V16.8C3 17.9201 3 18.4798 3.21799 18.9076C3.40973 19.2839 3.71547 19.5905 4.0918 19.7822C4.5192 20 5.07899 20 6.19691 20H17.8031C18.921 20 19.48 20 19.9074 19.7822C20.2837 19.5905 20.5905 19.2841 20.7822 18.9078C21.0002 18.48 21.0002 17.9199 21.0002 16.7998L21.0002 9.19978C21.0002 8.07967 21.0002 7.51962 20.7822 7.0918C20.5905 6.71547 20.2839 6.40973 19.9076 6.21799C19.4798 6 18.9201 6 17.8 6H12M3 6H12M3 6C3 4.89543 3.89543 4 5 4H8.67452C9.1637 4 9.40886 4 9.63904 4.05526C9.84311 4.10425 10.0379 4.18526 10.2168 4.29492C10.4186 4.41857 10.5918 4.59182 10.9375 4.9375L12 6" stroke="currentColor" stroke-width="2" stroke-linecap="round" stroke-linejoin="round" />
  </symbol>
  <symbol id="Folder_Edit" width="24" height="24" viewBox="0 0 24 24" fill="none">
    <path d="M21 9.25V9.2C21 8.0799 21 7.51984 20.782 7.09202C20.5903 6.7157 20.2843 6.40974 19.908 6.21799C19.4802 6 18.9201 6 17.8 6L3 6M3 6L3 16.8C3 17.9201 3 18.4802 3.21799 18.908C3.40973 19.2843 3.7157 19.5903 4.09202 19.782C4.51984 20 5.0799 20 6.2 20H7M3 6L3 5.6C3 5.03995 3 4.75992 3.109 4.54601C3.20487 4.35785 3.35785 4.20487 3.54601 4.10899C3.75992 4 4.03995 4 4.6 4H9.33726C9.58185 4 9.70415 4 9.81923 4.02763C9.92127 4.05213 10.0188 4.09253 10.1083 4.14736C10.2092 4.2092 10.2957 4.29568 10.4686 4.46863L12 6M16 14L18 16M11 21V18.5L18.5 11L21 13.5L13.5 21H11Z" stroke="currentColor" stroke-width="2" stroke-linecap="round" stroke-linejoin="round" />
  </symbol>
  <symbol id="Folder_Open" width="24" height="24" viewBox="0 0 24 24" fill="none">
    <path d="M17.8031 20L19.793 20C20.2255 20 20.4419 20 20.6236 19.9258C20.784 19.8603 20.9251 19.7538 21.0322 19.6175C21.1535 19.4631 21.2132 19.2555 21.332 18.8395L22.4177 15.0396C22.6156 14.3472 22.714 14.0009 22.6363 13.7271C22.5682 13.4871 22.4131 13.2813 22.2011 13.15C21.9731 13.0087 21.64 13.0005 21.0002 13M17.8031 20H6.19691M17.8031 20C18.921 20 19.48 20 19.9074 19.7822C20.2837 19.5905 20.5905 19.2841 20.7822 18.9078C21.0002 18.48 21.0002 17.9199 21.0002 16.7998V13M6.19691 20H5.12109C4.40152 20 4.04075 20 3.79883 19.8501C3.58683 19.7187 3.43144 19.5129 3.36338 19.2729C3.34904 19.2224 3.34073 19.1694 3.33796 19.1122M6.19691 20C5.07899 20 4.5192 20 4.0918 19.7822C3.78624 19.6265 3.52721 19.3952 3.33796 19.1122M21.0002 13C20.9608 13 20.9203 13 20.8786 13H5.00028L3.58301 17.9604L3.58096 17.9674C3.42083 18.5278 3.32578 18.8605 3.33796 19.1122M21.0002 13L21.0002 9.19978C21.0002 8.07967 21.0002 7.51962 20.7822 7.0918C20.5905 6.71547 20.2839 6.40973 19.9076 6.21799C19.4798 6 18.9201 6 17.8 6H12M3.33796 19.1122C3.29413 19.0467 3.25404 18.9784 3.21799 18.9076C3 18.4798 3 17.9201 3 16.8V6M3 6H12M3 6C3 4.89543 3.89543 4 5 4H8.67452C9.1637 4 9.40886 4 9.63904 4.05526C9.84311 4.10425 10.0379 4.18526 10.2168 4.29492C10.4186 4.41857 10.5918 4.59182 10.9375 4.9375L12 6" stroke="currentColor" stroke-width="2" stroke-linecap="round" stroke-linejoin="round" />
  </symbol>
  <symbol id="Folder_Remove" width="24" height="24" viewBox="0 0 24 24" fill="none">
    <path d="M9 13H15M3 6V16.8C3 17.9201 3 18.4796 3.21799 18.9074C3.40973 19.2837 3.71547 19.5905 4.0918 19.7822C4.5192 20 5.07899 20 6.19691 20H17.8037C18.9216 20 19.4806 20 19.908 19.7822C20.2843 19.5905 20.5905 19.2841 20.7822 18.9078C21.0002 18.48 21.0002 17.9199 21.0002 16.7998L21.0002 9.19978C21.0002 8.07967 21.0002 7.51962 20.7822 7.0918C20.5905 6.71547 20.2837 6.40973 19.9074 6.21799C19.4796 6 18.9201 6 17.8 6H12M3 6H12M3 6C3 4.89543 3.89543 4 5 4H8.67452C9.1637 4 9.40915 4 9.63933 4.05526C9.8434 4.10425 10.0379 4.18526 10.2168 4.29492C10.4186 4.41856 10.5918 4.59183 10.9375 4.9375L12 6" stroke="currentColor" stroke-width="2" stroke-linecap="round" stroke-linejoin="round" />
  </symbol>
  <symbol id="Folder_Search" width="24" height="24" viewBox="0 0 24 24" fill="none">
    <path d="M3 6V16.8C3 17.9201 3 18.4798 3.21799 18.9076C3.40973 19.2839 3.71547 19.5905 4.0918 19.7822C4.5192 20 5.07899 20 6.19691 20H17.8031C18.921 20 19.48 20 19.9074 19.7822C20.2837 19.5905 20.5905 19.2841 20.7822 18.9078C21.0002 18.48 21.0002 17.9199 21.0002 16.7998L21.0002 9.19978C21.0002 8.07967 21.0002 7.51962 20.7822 7.0918C20.5905 6.71547 20.2839 6.40973 19.9076 6.21799C19.4798 6 18.9201 6 17.8 6H12M3 6H12M3 6C3 4.89543 3.89543 4 5 4H8.67452C9.1637 4 9.40886 4 9.63904 4.05526C9.84311 4.10425 10.0379 4.18526 10.2168 4.29492C10.4186 4.41857 10.5918 4.59182 10.9375 4.9375L12 6M14.9994 16.0004L13.3418 14.3428M11.5 15C10.1193 15 9 13.8807 9 12.5C9 11.1193 10.1193 10 11.5 10C12.8807 10 14 11.1193 14 12.5C14 13.8807 12.8807 15 11.5 15Z" stroke="currentColor" stroke-width="2" stroke-linecap="round" stroke-linejoin="round" />
  </symbol>
  <symbol id="Folder_Upload" width="24" height="24" viewBox="0 0 24 24" fill="none">
    <path d="M12 16V10M12 10L9 12M12 10L15 12M3 6V16.8C3 17.9201 3 18.4798 3.21799 18.9076C3.40973 19.2839 3.71547 19.5905 4.0918 19.7822C4.5192 20 5.07899 20 6.19691 20H17.8031C18.921 20 19.48 20 19.9074 19.7822C20.2837 19.5905 20.5905 19.2841 20.7822 18.9078C21.0002 18.48 21.0002 17.9199 21.0002 16.7998L21.0002 9.19978C21.0002 8.07967 21.0002 7.51962 20.7822 7.0918C20.5905 6.71547 20.2839 6.40973 19.9076 6.21799C19.4798 6 18.9201 6 17.8 6H12M3 6H12M3 6C3 4.89543 3.89543 4 5 4H8.67452C9.1637 4 9.40886 4 9.63904 4.05526C9.84311 4.10425 10.0379 4.18526 10.2168 4.29492C10.4186 4.41857 10.5918 4.59182 10.9375 4.9375L12 6" stroke="currentColor" stroke-width="2" stroke-linecap="round" stroke-linejoin="round" />
  </symbol>
  <symbol id="Folders" width="24" height="24" viewBox="0 0 24 24" fill="none">
    <path d="M3 11V19.4C3 19.9601 3 20.2396 3.10899 20.4535C3.20487 20.6417 3.35774 20.7952 3.5459 20.8911C3.7596 21 4.03901 21 4.59797 21L15.4014 21C15.9603 21 16.2408 21 16.4545 20.8911C16.6427 20.7952 16.7948 20.6421 16.8906 20.4539C16.9996 20.24 16.9996 19.96 16.9996 19.3999L17.0011 15.0006M3 11H10M3 11L3 10.6001C3 10.0401 3 9.75979 3.10899 9.5459C3.20486 9.35774 3.35774 9.20486 3.5459 9.10898C3.75977 9.00001 4.03975 9.00001 4.59961 9.00001L7 9M10 11H15.4C15.96 11 16.242 11 16.456 11.109C16.6441 11.2049 16.7948 11.3577 16.8906 11.5459C16.9996 11.7598 16.9996 12.0398 16.9996 12.5999L17.0011 15.0006M10 11L8.9248 9.61768C8.74861 9.39115 8.66017 9.27743 8.5498 9.1958C8.45201 9.12347 8.34303 9.06979 8.2259 9.037C8.09373 9.00001 7.9488 9.00001 7.66191 9.00001L7 9M7 5H19.4C19.9601 5 20.242 5 20.4559 5.10899C20.6441 5.20487 20.7948 5.35774 20.8906 5.5459C20.9996 5.75981 20.9996 6.03984 20.9996 6.59989V13.3999C20.9996 13.96 20.9996 14.24 20.8906 14.4539C20.7948 14.6421 20.6432 14.7952 20.4551 14.8911C20.2414 15 19.9613 15 19.4023 15L17.0011 15.0006M7 5V9M7 5L7 4.6001C7 4.04014 7 3.75979 7.10899 3.5459C7.20486 3.35774 7.35774 3.20487 7.5459 3.10899C7.75981 3 8.03956 3 8.59961 3H11.6615C11.9487 3 12.0913 3 12.2236 3.03701C12.3407 3.0698 12.452 3.12347 12.5498 3.1958C12.6602 3.27743 12.7486 3.39115 12.9248 3.61768L13.9999 4.99998" stroke="currentColor" stroke-width="2" stroke-linecap="round" stroke-linejoin="round" />
  </symbol>
  <symbol id="Note" width="24" height="24" viewBox="0 0 24 24" fill="none">
    <path d="M13 19.9991C12.9051 20 12.7986 20 12.677 20H7.19691C6.07899 20 5.5192 20 5.0918 19.7822C4.71547 19.5905 4.40973 19.2842 4.21799 18.9079C4 18.4801 4 17.9203 4 16.8002V7.2002C4 6.08009 4 5.51962 4.21799 5.0918C4.40973 4.71547 4.71547 4.40973 5.0918 4.21799C5.51962 4 6.08009 4 7.2002 4H16.8002C17.9203 4 18.4796 4 18.9074 4.21799C19.2837 4.40973 19.5905 4.71547 19.7822 5.0918C20 5.5192 20 6.07899 20 7.19691V12.6747C20 12.7973 20 12.9045 19.9991 13M13 19.9991C13.2857 19.9966 13.4663 19.9862 13.6388 19.9448C13.8429 19.8958 14.0379 19.8147 14.2168 19.705C14.4186 19.5814 14.5916 19.4089 14.9375 19.063L19.063 14.9375C19.4089 14.5916 19.5809 14.4186 19.7046 14.2168C19.8142 14.0379 19.8953 13.8424 19.9443 13.6384C19.9857 13.4659 19.9964 13.2855 19.9991 13M13 19.9991V14.6001C13 14.04 13 13.7598 13.109 13.5459C13.2049 13.3577 13.3577 13.2049 13.5459 13.109C13.7598 13 14.0396 13 14.5996 13H19.9991" stroke="currentColor" stroke-width="2" stroke-linecap="round" stroke-linejoin="round" />
  </symbol>
  <symbol id="Note_Edit" width="24" height="24" viewBox="0 0 24 24" fill="none">
    <path d="M10.0002 4H7.2002C6.08009 4 5.51962 4 5.0918 4.21799C4.71547 4.40973 4.40973 4.71547 4.21799 5.0918C4 5.51962 4 6.08009 4 7.2002V16.8002C4 17.9203 4 18.4801 4.21799 18.9079C4.40973 19.2842 4.71547 19.5905 5.0918 19.7822C5.5192 20 6.07899 20 7.19691 20H16.8031C17.921 20 18.48 20 18.9074 19.7822C19.2837 19.5905 19.5905 19.2839 19.7822 18.9076C20 18.4802 20 17.921 20 16.8031V14M16 5L10 11V14H13L19 8M16 5L19 2L22 5L19 8M16 5L19 8" stroke="currentColor" stroke-width="2" stroke-linecap="round" stroke-linejoin="round" />
  </symbol>
  <symbol id="Note_Search" width="24" height="24" viewBox="0 0 24 24" fill="none">
    <path d="M19 19L16 16M10.0002 20H7.19692C6.07901 20 5.5192 20 5.0918 19.7822C4.71547 19.5905 4.40973 19.2842 4.21799 18.9079C4 18.4801 4 17.9203 4 16.8002V7.2002C4 6.08009 4 5.51962 4.21799 5.0918C4.40973 4.71547 4.71547 4.40973 5.0918 4.21799C5.51962 4 6.08009 4 7.2002 4H16.8002C17.9203 4 18.4796 4 18.9074 4.21799C19.2837 4.40973 19.5905 4.71547 19.7822 5.0918C20 5.5192 20 6.07899 20 7.19691V10.0002M13.5 17C11.567 17 10 15.433 10 13.5C10 11.567 11.567 10 13.5 10C15.433 10 17 11.567 17 13.5C17 15.433 15.433 17 13.5 17Z" stroke="currentColor" stroke-width="2" stroke-linecap="round" stroke-linejoin="round" />
  </symbol>
  <symbol id="Notebook" width="24" height="24" viewBox="0 0 24 24" fill="none">
    <path d="M8 4H7.2002C6.08009 4 5.51962 4 5.0918 4.21799C4.71547 4.40973 4.40973 4.71547 4.21799 5.0918C4 5.51962 4 6.08009 4 7.2002V16.8002C4 17.9203 4 18.4801 4.21799 18.9079C4.40973 19.2842 4.71547 19.5905 5.0918 19.7822C5.5192 20 6.07899 20 7.19691 20H8M8 4H16.8002C17.9203 4 18.4796 4 18.9074 4.21799C19.2837 4.40973 19.5905 4.71547 19.7822 5.0918C20 5.5192 20 6.07899 20 7.19691V16.8036C20 17.9215 20 18.4805 19.7822 18.9079C19.5905 19.2842 19.2837 19.5905 18.9074 19.7822C18.48 20 17.921 20 16.8031 20H8M8 4V20M12 11H16M12 8H16" stroke="currentColor" stroke-width="2" stroke-linecap="round" stroke-linejoin="round" />
  </symbol>
</svg>